<svg width="20" height="20" version="1.1" viewBox="0 0 20 20" xmlns="http://www.w3.org/2000/svg">
 <path
  d="m10 0c-0.1263 0-0.2527 0.03288-0.3658 0.09847l-7.994 4.635c-0.2249 0.1304-0.3633 0.3707-0.3634 0.6307v9.271c4.13e-5 0.26 0.1385 0.5003 0.3634 0.6307l7.994 4.635c0.2262 0.1312 0.5054 0.1312 0.7316 0l7.994-4.635c0.2249-0.1304 0.3633-0.3707 0.3634-0.6307v-9.271c-4e-5 -0.26-0.1385-0.5003-0.3634-0.6307l-7.994-4.635c-0.1131-0.06559-0.2395-0.09847-0.3658-0.09847zm-0.1457 2.096a0.8328 0.8341 0 0 1 0.5648 0.1005l6.07 3.541a0.8328 0.8341 0 0 1 0.1978 0.1672 0.8328 0.8341 0 0 1 0.0293 0.03255 0.8328 0.8341 0 0 1 0.1278 0.2222 0.8328 0.8341 0 0 1 0.0118 0.03662 0.8328 0.8341 0 0 1 0.04639 0.2702v7.075a0.8328 0.8341 0 0 1-0.4134 0.721l-6.07 3.541a0.8328 0.8341 0 0 1-0.02116 0.0077 0.8328 0.8341 0 0 1-0.2372 0.08749 0.8328 0.8341 0 0 1-0.03499 0.0049 0.8328 0.8341 0 0 1-0.2616 7.87e-4 0.8328 0.8341 0 0 1-0.02075-0.0049 0.8328 0.8341 0 0 1-0.2531-0.09155 0.8328 0.8341 0 0 1-0.00692-0.0032 0.8328 0.8341 0 0 1-0.00244-0.0013l-6.07-3.541a0.8328 0.8341 0 0 1-0.4134-0.721v-7.083a0.8328 0.8341 0 0 1 0.0175-0.09888 0.8328 0.8341 0 0 1 0.02157-0.1233 0.8328 0.8341 0 0 1 0.08464-0.1904 0.8328 0.8341 0 0 1 0.05493-0.09603 0.8328 0.8341 0 0 1 0.21-0.1904 0.8328 0.8341 0 0 1 0.02441-0.02197l6.07-3.541a0.8328 0.8341 0 0 1 0.2734-0.1005zm0.1457 1.786-4.415 2.577 4.415 2.576 4.415-2.576zm-5.237 4.028v5.152l4.404 2.57v-5.152l-4.001-2.334zm10.47 0-4.404 2.57v5.152l4.404-2.57z"
  fill="#ccc" fill-opacity=".8"/>
</svg>
